solid OpenSCAD_Model
  facet normal 1 0 0
    outer loop
      vertex 0.9 -1.15 4.1
      vertex 0.9 1.95 4.1
      vertex 0.9 1.95 5.1
    endloop
  endfacet
  facet normal 1 0 0
    outer loop
      vertex 0.9 1.95 4.1
      vertex 0.9 -1.15 4.1
      vertex 0.9 1.95 3.6
    endloop
  endfacet
  facet normal 1 0 0
    outer loop
      vertex 0.9 -1.15 4.1
      vertex 0.9 1.95 5.1
      vertex 0.9 -1.15 5.1
    endloop
  endfacet
  facet normal 1 -0 0
    outer loop
      vertex 0.9 1.95 4.1
      vertex 0.9 2 3.6
      vertex 0.9 2 4.1
    endloop
  endfacet
  facet normal 1 0 0
    outer loop
      vertex 0.9 2 3.6
      vertex 0.9 1.95 4.1
      vertex 0.9 1.95 3.6
    endloop
  endfacet
  facet normal 1 0 0
    outer loop
      vertex 0.9 4.1 2.6
      vertex 0.9 3.5 1.875
      vertex 0.9 4.1 0
    endloop
  endfacet
  facet normal 1 -0 0
    outer loop
      vertex 0.9 1.95 2.6
      vertex 0.9 3.5 1.875
      vertex 0.9 4.1 2.6
    endloop
  endfacet
  facet normal 1 0 0
    outer loop
      vertex 0.9 -1.15 3.6
      vertex 0.9 1.95 3.6
      vertex 0.9 -1.15 4.1
    endloop
  endfacet
  facet normal 1 0 0
    outer loop
      vertex 0.9 1.95 3.6
      vertex 0.9 -1.15 3.6
      vertex 0.9 1.95 2.6
    endloop
  endfacet
  facet normal 1 0 0
    outer loop
      vertex 0.9 -1.15 2.6
      vertex 0.9 1.95 2.6
      vertex 0.9 -1.15 3.6
    endloop
  endfacet
  facet normal 1 0 0
    outer loop
      vertex 0.9 1.95 2.6
      vertex 0.9 -1.15 2.6
      vertex 0.9 3.5 1.875
    endloop
  endfacet
  facet normal 1 0 0
    outer loop
      vertex 0.9 -1.15 2.6
      vertex 0.9 -3.5 1.875
      vertex 0.9 3.5 1.875
    endloop
  endfacet
  facet normal 1 0 0
    outer loop
      vertex 0.9 -3.5 1.875
      vertex 0.9 -4.1 2.6
      vertex 0.9 -3.5 0.724999
    endloop
  endfacet
  facet normal 1 -0 0
    outer loop
      vertex 0.9 -4.1 2.6
      vertex 0.9 -3.5 1.875
      vertex 0.9 -1.15 2.6
    endloop
  endfacet
  facet normal 1 -0 0
    outer loop
      vertex 0.9 3.5 0.724999
      vertex 0.9 4.1 0
      vertex 0.9 3.5 1.875
    endloop
  endfacet
  facet normal 1 -0 0
    outer loop
      vertex 0.9 -3.5 0.724999
      vertex 0.9 4.1 0
      vertex 0.9 3.5 0.724999
    endloop
  endfacet
  facet normal 1 0 0
    outer loop
      vertex 0.9 -3.5 0.724999
      vertex 0.9 -4.1 0
      vertex 0.9 4.1 0
    endloop
  endfacet
  facet normal 1 0 0
    outer loop
      vertex 0.9 -4.1 0
      vertex 0.9 -3.5 0.724999
      vertex 0.9 -4.1 2.6
    endloop
  endfacet
  facet normal 1 -0 0
    outer loop
      vertex 0.9 -1.2 4.1
      vertex 0.9 -1.15 3.6
      vertex 0.9 -1.15 4.1
    endloop
  endfacet
  facet normal 1 0 0
    outer loop
      vertex 0.9 -1.15 3.6
      vertex 0.9 -1.2 4.1
      vertex 0.9 -1.2 3.6
    endloop
  endfacet
  facet normal -0 0 1
    outer loop
      vertex -0.9 4.1 2.6
      vertex 0.9 1.95 2.6
      vertex 0.9 4.1 2.6
    endloop
  endfacet
  facet normal 0 0 1
    outer loop
      vertex 0.9 1.95 2.6
      vertex -0.9 4.1 2.6
      vertex -0.9 1.95 2.6
    endloop
  endfacet
  facet normal -0 0 1
    outer loop
      vertex -0.9 -1.15 2.6
      vertex 0.9 -4.1 2.6
      vertex 0.9 -1.15 2.6
    endloop
  endfacet
  facet normal 0 0 1
    outer loop
      vertex 0.9 -4.1 2.6
      vertex -0.9 -1.15 2.6
      vertex -0.9 -4.1 2.6
    endloop
  endfacet
  facet normal 0 0 -1
    outer loop
      vertex -0.9 -4.1 0
      vertex 0.9 4.1 0
      vertex 0.9 -4.1 0
    endloop
  endfacet
  facet normal -0 0 -1
    outer loop
      vertex 0.9 4.1 0
      vertex -0.9 -4.1 0
      vertex -0.9 4.1 0
    endloop
  endfacet
  facet normal -1 0 0
    outer loop
      vertex -0.9 -1.2 3.6
      vertex -0.9 -1.15 4.1
      vertex -0.9 -1.15 3.6
    endloop
  endfacet
  facet normal -1 -0 0
    outer loop
      vertex -0.9 -1.15 4.1
      vertex -0.9 -1.2 3.6
      vertex -0.9 -1.2 4.1
    endloop
  endfacet
  facet normal -1 0 0
    outer loop
      vertex -0.9 4.1 0
      vertex -0.9 3.5 0.724999
      vertex -0.9 4.1 2.6
    endloop
  endfacet
  facet normal -1 0 0
    outer loop
      vertex -0.9 4.1 0
      vertex -0.9 -3.5 0.724999
      vertex -0.9 3.5 0.724999
    endloop
  endfacet
  facet normal -1 -0 0
    outer loop
      vertex -0.9 -3.5 0.724999
      vertex -0.9 -4.1 0
      vertex -0.9 -3.5 1.875
    endloop
  endfacet
  facet normal -1 0 0
    outer loop
      vertex -0.9 -4.1 0
      vertex -0.9 -3.5 0.724999
      vertex -0.9 4.1 0
    endloop
  endfacet
  facet normal -1 0 0
    outer loop
      vertex -0.9 3.5 1.875
      vertex -0.9 4.1 2.6
      vertex -0.9 3.5 0.724999
    endloop
  endfacet
  facet normal -1 0 0
    outer loop
      vertex -0.9 3.5 1.875
      vertex -0.9 1.95 2.6
      vertex -0.9 4.1 2.6
    endloop
  endfacet
  facet normal -1 0 0
    outer loop
      vertex -0.9 -1.15 3.6
      vertex -0.9 1.95 3.6
      vertex -0.9 1.95 2.6
    endloop
  endfacet
  facet normal -1 0 0
    outer loop
      vertex -0.9 1.95 3.6
      vertex -0.9 -1.15 3.6
      vertex -0.9 1.95 4.1
    endloop
  endfacet
  facet normal -1 0 0
    outer loop
      vertex -0.9 -1.15 3.6
      vertex -0.9 1.95 2.6
      vertex -0.9 -1.15 2.6
    endloop
  endfacet
  facet normal -1 0 0
    outer loop
      vertex -0.9 3.5 1.875
      vertex -0.9 -1.15 2.6
      vertex -0.9 1.95 2.6
    endloop
  endfacet
  facet normal -1 0 0
    outer loop
      vertex -0.9 -3.5 1.875
      vertex -0.9 -1.15 2.6
      vertex -0.9 3.5 1.875
    endloop
  endfacet
  facet normal -1 0 0
    outer loop
      vertex -0.9 -3.5 1.875
      vertex -0.9 -4.1 2.6
      vertex -0.9 -1.15 2.6
    endloop
  endfacet
  facet normal -1 0 0
    outer loop
      vertex -0.9 -4.1 2.6
      vertex -0.9 -3.5 1.875
      vertex -0.9 -4.1 0
    endloop
  endfacet
  facet normal -1 0 0
    outer loop
      vertex -0.9 1.95 3.6
      vertex -0.9 2 4.1
      vertex -0.9 2 3.6
    endloop
  endfacet
  facet normal -1 -0 0
    outer loop
      vertex -0.9 2 4.1
      vertex -0.9 1.95 3.6
      vertex -0.9 1.95 4.1
    endloop
  endfacet
  facet normal -1 0 0
    outer loop
      vertex -0.9 -1.15 4.1
      vertex -0.9 1.95 4.1
      vertex -0.9 -1.15 3.6
    endloop
  endfacet
  facet normal -1 0 0
    outer loop
      vertex -0.9 1.95 4.1
      vertex -0.9 -1.15 4.1
      vertex -0.9 1.95 5.1
    endloop
  endfacet
  facet normal -1 -0 0
    outer loop
      vertex -0.9 1.95 5.1
      vertex -0.9 -1.15 4.1
      vertex -0.9 -1.15 5.1
    endloop
  endfacet
  facet normal 0 1 -0
    outer loop
      vertex 0.9 4.1 0
      vertex -0.9 4.1 2.6
      vertex 0.9 4.1 2.6
    endloop
  endfacet
  facet normal 0 1 0
    outer loop
      vertex -0.9 4.1 2.6
      vertex 0.9 4.1 0
      vertex -0.9 4.1 0
    endloop
  endfacet
  facet normal 0 -1 0
    outer loop
      vertex -0.9 -4.1 0
      vertex 0.9 -4.1 2.6
      vertex -0.9 -4.1 2.6
    endloop
  endfacet
  facet normal 0 -1 -0
    outer loop
      vertex 0.9 -4.1 2.6
      vertex -0.9 -4.1 0
      vertex 0.9 -4.1 0
    endloop
  endfacet
  facet normal 0 0 -1
    outer loop
      vertex -0.9 -3.5 1.875
      vertex 0.9 3.5 1.875
      vertex 0.9 -3.5 1.875
    endloop
  endfacet
  facet normal -0 0 -1
    outer loop
      vertex 0.9 3.5 1.875
      vertex -0.9 -3.5 1.875
      vertex -0.9 3.5 1.875
    endloop
  endfacet
  facet normal -0 0 1
    outer loop
      vertex -0.9 3.5 0.724999
      vertex 0.9 -3.5 0.724999
      vertex 0.9 3.5 0.724999
    endloop
  endfacet
  facet normal 0 0 1
    outer loop
      vertex 0.9 -3.5 0.724999
      vertex -0.9 3.5 0.724999
      vertex -0.9 -3.5 0.724999
    endloop
  endfacet
  facet normal 0 -1 0
    outer loop
      vertex -0.9 3.5 0.724999
      vertex 0.9 3.5 1.875
      vertex -0.9 3.5 1.875
    endloop
  endfacet
  facet normal 0 -1 -0
    outer loop
      vertex 0.9 3.5 1.875
      vertex -0.9 3.5 0.724999
      vertex 0.9 3.5 0.724999
    endloop
  endfacet
  facet normal 0 1 -0
    outer loop
      vertex 0.9 -3.5 0.724999
      vertex -0.9 -3.5 1.875
      vertex 0.9 -3.5 1.875
    endloop
  endfacet
  facet normal 0 1 0
    outer loop
      vertex -0.9 -3.5 1.875
      vertex 0.9 -3.5 0.724999
      vertex -0.9 -3.5 0.724999
    endloop
  endfacet
  facet normal -0 0 1
    outer loop
      vertex -0.9 1.95 5.1
      vertex 0.9 -1.15 5.1
      vertex 0.9 1.95 5.1
    endloop
  endfacet
  facet normal 0 0 1
    outer loop
      vertex 0.9 -1.15 5.1
      vertex -0.9 1.95 5.1
      vertex -0.9 -1.15 5.1
    endloop
  endfacet
  facet normal 0 1 -0
    outer loop
      vertex 0.9 1.95 4.1
      vertex -0.9 1.95 5.1
      vertex 0.9 1.95 5.1
    endloop
  endfacet
  facet normal 0 1 0
    outer loop
      vertex -0.9 1.95 5.1
      vertex 0.9 1.95 4.1
      vertex -0.9 1.95 4.1
    endloop
  endfacet
  facet normal 0 1 -0
    outer loop
      vertex 0.9 1.95 2.6
      vertex -0.9 1.95 3.6
      vertex 0.9 1.95 3.6
    endloop
  endfacet
  facet normal 0 1 0
    outer loop
      vertex -0.9 1.95 3.6
      vertex 0.9 1.95 2.6
      vertex -0.9 1.95 2.6
    endloop
  endfacet
  facet normal 0 -1 0
    outer loop
      vertex -0.9 -1.15 4.1
      vertex 0.9 -1.15 5.1
      vertex -0.9 -1.15 5.1
    endloop
  endfacet
  facet normal 0 -1 -0
    outer loop
      vertex 0.9 -1.15 5.1
      vertex -0.9 -1.15 4.1
      vertex 0.9 -1.15 4.1
    endloop
  endfacet
  facet normal 0 -1 0
    outer loop
      vertex -0.9 -1.15 2.6
      vertex 0.9 -1.15 3.6
      vertex -0.9 -1.15 3.6
    endloop
  endfacet
  facet normal 0 -1 -0
    outer loop
      vertex 0.9 -1.15 3.6
      vertex -0.9 -1.15 2.6
      vertex 0.9 -1.15 2.6
    endloop
  endfacet
  facet normal -0 0 1
    outer loop
      vertex -0.9 2 4.1
      vertex 0.9 1.95 4.1
      vertex 0.9 2 4.1
    endloop
  endfacet
  facet normal 0 0 1
    outer loop
      vertex 0.9 1.95 4.1
      vertex -0.9 2 4.1
      vertex -0.9 1.95 4.1
    endloop
  endfacet
  facet normal -0 0 1
    outer loop
      vertex -0.9 -1.15 4.1
      vertex 0.9 -1.2 4.1
      vertex 0.9 -1.15 4.1
    endloop
  endfacet
  facet normal 0 0 1
    outer loop
      vertex 0.9 -1.2 4.1
      vertex -0.9 -1.15 4.1
      vertex -0.9 -1.2 4.1
    endloop
  endfacet
  facet normal 0 0 -1
    outer loop
      vertex -0.9 1.95 3.6
      vertex 0.9 2 3.6
      vertex 0.9 1.95 3.6
    endloop
  endfacet
  facet normal -0 0 -1
    outer loop
      vertex 0.9 2 3.6
      vertex -0.9 1.95 3.6
      vertex -0.9 2 3.6
    endloop
  endfacet
  facet normal 0 0 -1
    outer loop
      vertex -0.9 -1.2 3.6
      vertex 0.9 -1.15 3.6
      vertex 0.9 -1.2 3.6
    endloop
  endfacet
  facet normal -0 0 -1
    outer loop
      vertex 0.9 -1.15 3.6
      vertex -0.9 -1.2 3.6
      vertex -0.9 -1.15 3.6
    endloop
  endfacet
  facet normal 0 1 -0
    outer loop
      vertex 0.9 2 3.6
      vertex -0.9 2 4.1
      vertex 0.9 2 4.1
    endloop
  endfacet
  facet normal 0 1 0
    outer loop
      vertex -0.9 2 4.1
      vertex 0.9 2 3.6
      vertex -0.9 2 3.6
    endloop
  endfacet
  facet normal 0 -1 0
    outer loop
      vertex -0.9 -1.2 3.6
      vertex 0.9 -1.2 4.1
      vertex -0.9 -1.2 4.1
    endloop
  endfacet
  facet normal 0 -1 -0
    outer loop
      vertex 0.9 -1.2 4.1
      vertex -0.9 -1.2 3.6
      vertex 0.9 -1.2 3.6
    endloop
  endfacet
endsolid OpenSCAD_Model
